<?xml version="1.0" standalone="no"?>
<svg viewBox="0 0 200 200" xmlns="http://www.w3.org/2000/svg">
  <path fill="#000000" d="M23.7,-34.3C34.8,-34.5,50.9,-36.6,55,-31.2C59.1,-25.8,51.2,-12.9,49.3,-1.1C47.4,10.7,51.4,21.4,47.1,26.4C42.8,31.3,30,30.6,20.8,33C11.5,35.4,5.8,40.8,-4.5,48.7C-14.8,56.5,-29.6,66.7,-37.4,63.5C-45.3,60.3,-46.2,43.8,-49.7,31C-53.2,18.1,-59.3,9.1,-60.1,-0.5C-60.9,-10,-56.5,-20,-51.9,-30.9C-47.3,-41.8,-42.5,-53.6,-33.8,-54.8C-25.1,-56,-12.6,-46.6,-3.2,-41.2C6.2,-35.7,12.5,-34.1,23.7,-34.3Z" transform="translate(100 100)" />
</svg>
